<mxfile host="Electron" agent="Mozilla/5.0 (Windows NT 10.0; Win64; x64) AppleWebKit/537.36 (KHTML, like Gecko) draw.io/27.0.9 Chrome/134.0.6998.205 Electron/35.4.0 Safari/537.36" version="27.0.9">
  <diagram name="Страница — 1" id="h7ALuC99OAEszXNXUYj4">
    <mxGraphModel dx="1006" dy="627" grid="1" gridSize="10" guides="1" tooltips="1" connect="1" arrows="1" fold="1" page="1" pageScale="1" pageWidth="827" pageHeight="1169" math="0" shadow="0">
      <root>
        <mxCell id="0" />
        <mxCell id="1" parent="0" />
        <mxCell id="vTc1PEp6L30iyw_Uej8e-1" value="&lt;div style=&quot;&quot;&gt;&lt;span style=&quot;font-weight: 600; color: rgb(64, 64, 64); font-family: quote-cjk-patch, Inter, system-ui, -apple-system, BlinkMacSystemFont, &amp;quot;Segoe UI&amp;quot;, Roboto, &amp;quot;Noto Sans&amp;quot;, Ubuntu, Cantarell, &amp;quot;Helvetica Neue&amp;quot;, Oxygen, &amp;quot;Open Sans&amp;quot;, sans-serif; font-size: 16.002px; background-color: rgb(255, 255, 255);&quot;&gt;Department&lt;/span&gt;&lt;span style=&quot;color: rgb(64, 64, 64); font-family: quote-cjk-patch, Inter, system-ui, -apple-system, BlinkMacSystemFont, &amp;quot;Segoe UI&amp;quot;, Roboto, &amp;quot;Noto Sans&amp;quot;, Ubuntu, Cantarell, &amp;quot;Helvetica Neue&amp;quot;, Oxygen, &amp;quot;Open Sans&amp;quot;, sans-serif; font-size: 16.002px; text-align: left; background-color: rgb(255, 255, 255);&quot;&gt;&amp;nbsp;&lt;/span&gt;&lt;/div&gt;&lt;div&gt;&lt;span style=&quot;color: rgb(64, 64, 64); font-family: quote-cjk-patch, Inter, system-ui, -apple-system, BlinkMacSystemFont, &amp;quot;Segoe UI&amp;quot;, Roboto, &amp;quot;Noto Sans&amp;quot;, Ubuntu, Cantarell, &amp;quot;Helvetica Neue&amp;quot;, Oxygen, &amp;quot;Open Sans&amp;quot;, sans-serif; font-size: 16.002px; text-align: left; background-color: rgb(255, 255, 255);&quot;&gt;(&lt;u&gt;PK&lt;/u&gt;) department_id&amp;nbsp;&lt;/span&gt;&lt;/div&gt;&lt;div style=&quot;text-align: left;&quot;&gt;&lt;span style=&quot;color: rgb(64, 64, 64); font-family: quote-cjk-patch, Inter, system-ui, -apple-system, BlinkMacSystemFont, &amp;quot;Segoe UI&amp;quot;, Roboto, &amp;quot;Noto Sans&amp;quot;, Ubuntu, Cantarell, &amp;quot;Helvetica Neue&amp;quot;, Oxygen, &amp;quot;Open Sans&amp;quot;, sans-serif; font-size: 16.002px; background-color: rgb(255, 255, 255);&quot;&gt;name&amp;nbsp;&lt;/span&gt;&lt;/div&gt;&lt;div style=&quot;text-align: left;&quot;&gt;&lt;span style=&quot;color: rgb(64, 64, 64); font-family: quote-cjk-patch, Inter, system-ui, -apple-system, BlinkMacSystemFont, &amp;quot;Segoe UI&amp;quot;, Roboto, &amp;quot;Noto Sans&amp;quot;, Ubuntu, Cantarell, &amp;quot;Helvetica Neue&amp;quot;, Oxygen, &amp;quot;Open Sans&amp;quot;, sans-serif; font-size: 16.002px; background-color: rgb(255, 255, 255);&quot;&gt;charter&amp;nbsp;&lt;/span&gt;&lt;/div&gt;" style="rounded=0;whiteSpace=wrap;html=1;" vertex="1" parent="1">
          <mxGeometry x="20" y="80" width="200" height="120" as="geometry" />
        </mxCell>
        <mxCell id="vTc1PEp6L30iyw_Uej8e-2" value="&lt;span style=&quot;font-weight: 600; color: rgb(64, 64, 64); font-family: quote-cjk-patch, Inter, system-ui, -apple-system, BlinkMacSystemFont, &amp;quot;Segoe UI&amp;quot;, Roboto, &amp;quot;Noto Sans&amp;quot;, Ubuntu, Cantarell, &amp;quot;Helvetica Neue&amp;quot;, Oxygen, &amp;quot;Open Sans&amp;quot;, sans-serif; font-size: 16.002px; text-align: start; background-color: rgb(255, 255, 255);&quot;&gt;Teacher&lt;br&gt;&lt;/span&gt;&lt;div style=&quot;text-align: left;&quot;&gt;&lt;span style=&quot;background-color: rgb(255, 255, 255); color: rgb(64, 64, 64); font-family: quote-cjk-patch, Inter, system-ui, -apple-system, BlinkMacSystemFont, &amp;quot;Segoe UI&amp;quot;, Roboto, &amp;quot;Noto Sans&amp;quot;, Ubuntu, Cantarell, &amp;quot;Helvetica Neue&amp;quot;, Oxygen, &amp;quot;Open Sans&amp;quot;, sans-serif; font-size: 16.002px;&quot;&gt;(&lt;u&gt;PK&lt;/u&gt;)&amp;nbsp;&lt;/span&gt;&lt;span style=&quot;color: rgb(64, 64, 64); font-family: quote-cjk-patch, Inter, system-ui, -apple-system, BlinkMacSystemFont, &amp;quot;Segoe UI&amp;quot;, Roboto, &amp;quot;Noto Sans&amp;quot;, Ubuntu, Cantarell, &amp;quot;Helvetica Neue&amp;quot;, Oxygen, &amp;quot;Open Sans&amp;quot;, sans-serif; font-size: 16.002px; background-color: rgb(255, 255, 255);&quot;&gt;teacher_id&lt;/span&gt;&lt;span style=&quot;font-weight: 600; color: rgb(64, 64, 64); font-family: quote-cjk-patch, Inter, system-ui, -apple-system, BlinkMacSystemFont, &amp;quot;Segoe UI&amp;quot;, Roboto, &amp;quot;Noto Sans&amp;quot;, Ubuntu, Cantarell, &amp;quot;Helvetica Neue&amp;quot;, Oxygen, &amp;quot;Open Sans&amp;quot;, sans-serif; font-size: 16.002px; background-color: rgb(255, 255, 255);&quot;&gt;&lt;/span&gt;&lt;/div&gt;&lt;div style=&quot;text-align: left;&quot;&gt;&lt;span style=&quot;color: rgb(64, 64, 64); font-family: quote-cjk-patch, Inter, system-ui, -apple-system, BlinkMacSystemFont, &amp;quot;Segoe UI&amp;quot;, Roboto, &amp;quot;Noto Sans&amp;quot;, Ubuntu, Cantarell, &amp;quot;Helvetica Neue&amp;quot;, Oxygen, &amp;quot;Open Sans&amp;quot;, sans-serif; font-size: 16.002px; background-color: rgb(255, 255, 255);&quot;&gt;last_name&amp;nbsp;&lt;/span&gt;&lt;/div&gt;&lt;div style=&quot;text-align: left;&quot;&gt;&lt;span style=&quot;color: rgb(64, 64, 64); font-family: quote-cjk-patch, Inter, system-ui, -apple-system, BlinkMacSystemFont, &amp;quot;Segoe UI&amp;quot;, Roboto, &amp;quot;Noto Sans&amp;quot;, Ubuntu, Cantarell, &amp;quot;Helvetica Neue&amp;quot;, Oxygen, &amp;quot;Open Sans&amp;quot;, sans-serif; font-size: 16.002px; background-color: rgb(255, 255, 255);&quot;&gt;first_name&amp;nbsp;&lt;/span&gt;&lt;/div&gt;&lt;div style=&quot;text-align: left;&quot;&gt;&lt;span style=&quot;color: rgb(64, 64, 64); font-family: quote-cjk-patch, Inter, system-ui, -apple-system, BlinkMacSystemFont, &amp;quot;Segoe UI&amp;quot;, Roboto, &amp;quot;Noto Sans&amp;quot;, Ubuntu, Cantarell, &amp;quot;Helvetica Neue&amp;quot;, Oxygen, &amp;quot;Open Sans&amp;quot;, sans-serif; font-size: 16.002px; background-color: rgb(255, 255, 255);&quot;&gt;middle_name&amp;nbsp;&lt;/span&gt;&lt;/div&gt;&lt;div style=&quot;text-align: left;&quot;&gt;&lt;span style=&quot;color: rgb(64, 64, 64); font-family: quote-cjk-patch, Inter, system-ui, -apple-system, BlinkMacSystemFont, &amp;quot;Segoe UI&amp;quot;, Roboto, &amp;quot;Noto Sans&amp;quot;, Ubuntu, Cantarell, &amp;quot;Helvetica Neue&amp;quot;, Oxygen, &amp;quot;Open Sans&amp;quot;, sans-serif; font-size: 16.002px; background-color: rgb(255, 255, 255);&quot;&gt;birth_date&amp;nbsp;&lt;/span&gt;&lt;/div&gt;&lt;div style=&quot;text-align: left;&quot;&gt;&lt;span style=&quot;color: rgb(64, 64, 64); font-family: quote-cjk-patch, Inter, system-ui, -apple-system, BlinkMacSystemFont, &amp;quot;Segoe UI&amp;quot;, Roboto, &amp;quot;Noto Sans&amp;quot;, Ubuntu, Cantarell, &amp;quot;Helvetica Neue&amp;quot;, Oxygen, &amp;quot;Open Sans&amp;quot;, sans-serif; font-size: 16.002px; background-color: rgb(255, 255, 255);&quot;&gt;phone&lt;/span&gt;&lt;/div&gt;&lt;div style=&quot;text-align: left;&quot;&gt;&lt;span style=&quot;color: rgb(64, 64, 64); font-family: quote-cjk-patch, Inter, system-ui, -apple-system, BlinkMacSystemFont, &amp;quot;Segoe UI&amp;quot;, Roboto, &amp;quot;Noto Sans&amp;quot;, Ubuntu, Cantarell, &amp;quot;Helvetica Neue&amp;quot;, Oxygen, &amp;quot;Open Sans&amp;quot;, sans-serif; font-size: 16.002px; background-color: rgb(255, 255, 255);&quot;&gt;(FK) department_id&amp;nbsp;&amp;nbsp;&lt;/span&gt;&lt;span style=&quot;color: rgb(64, 64, 64); font-family: quote-cjk-patch, Inter, system-ui, -apple-system, BlinkMacSystemFont, &amp;quot;Segoe UI&amp;quot;, Roboto, &amp;quot;Noto Sans&amp;quot;, Ubuntu, Cantarell, &amp;quot;Helvetica Neue&amp;quot;, Oxygen, &amp;quot;Open Sans&amp;quot;, sans-serif; font-size: 16.002px; text-align: left; background-color: rgb(255, 255, 255);&quot;&gt;&lt;/span&gt;&lt;/div&gt;&lt;div&gt;&lt;span style=&quot;color: rgb(64, 64, 64); font-family: quote-cjk-patch, Inter, system-ui, -apple-system, BlinkMacSystemFont, &amp;quot;Segoe UI&amp;quot;, Roboto, &amp;quot;Noto Sans&amp;quot;, Ubuntu, Cantarell, &amp;quot;Helvetica Neue&amp;quot;, Oxygen, &amp;quot;Open Sans&amp;quot;, sans-serif; font-size: 16.002px; text-align: left; background-color: rgb(255, 255, 255);&quot;&gt;&lt;br&gt;&lt;/span&gt;&lt;/div&gt;" style="rounded=0;whiteSpace=wrap;html=1;" vertex="1" parent="1">
          <mxGeometry x="330" y="80" width="200" height="190" as="geometry" />
        </mxCell>
        <mxCell id="vTc1PEp6L30iyw_Uej8e-3" value="&lt;span style=&quot;font-weight: 600; color: rgb(64, 64, 64); font-family: quote-cjk-patch, Inter, system-ui, -apple-system, BlinkMacSystemFont, &amp;quot;Segoe UI&amp;quot;, Roboto, &amp;quot;Noto Sans&amp;quot;, Ubuntu, Cantarell, &amp;quot;Helvetica Neue&amp;quot;, Oxygen, &amp;quot;Open Sans&amp;quot;, sans-serif; font-size: 16.002px; text-align: start; background-color: rgb(255, 255, 255);&quot;&gt;Course&lt;br&gt;&lt;/span&gt;&lt;div style=&quot;text-align: left;&quot;&gt;&lt;span style=&quot;background-color: rgb(255, 255, 255); color: rgb(64, 64, 64); font-family: quote-cjk-patch, Inter, system-ui, -apple-system, BlinkMacSystemFont, &amp;quot;Segoe UI&amp;quot;, Roboto, &amp;quot;Noto Sans&amp;quot;, Ubuntu, Cantarell, &amp;quot;Helvetica Neue&amp;quot;, Oxygen, &amp;quot;Open Sans&amp;quot;, sans-serif; font-size: 16.002px;&quot;&gt;(PK)&amp;nbsp;&lt;/span&gt;&lt;span style=&quot;background-color: rgb(255, 255, 255); color: rgb(64, 64, 64); font-family: quote-cjk-patch, Inter, system-ui, -apple-system, BlinkMacSystemFont, &amp;quot;Segoe UI&amp;quot;, Roboto, &amp;quot;Noto Sans&amp;quot;, Ubuntu, Cantarell, &amp;quot;Helvetica Neue&amp;quot;, Oxygen, &amp;quot;Open Sans&amp;quot;, sans-serif; font-size: 16.002px;&quot;&gt;course_id&lt;/span&gt;&lt;/div&gt;&lt;div style=&quot;text-align: left;&quot;&gt;&lt;span style=&quot;background-color: rgb(255, 255, 255); color: rgb(64, 64, 64); font-family: quote-cjk-patch, Inter, system-ui, -apple-system, BlinkMacSystemFont, &amp;quot;Segoe UI&amp;quot;, Roboto, &amp;quot;Noto Sans&amp;quot;, Ubuntu, Cantarell, &amp;quot;Helvetica Neue&amp;quot;, Oxygen, &amp;quot;Open Sans&amp;quot;, sans-serif; font-size: 16.002px;&quot;&gt;title&lt;/span&gt;&lt;span style=&quot;background-color: rgb(255, 255, 255); color: rgb(64, 64, 64); font-family: quote-cjk-patch, Inter, system-ui, -apple-system, BlinkMacSystemFont, &amp;quot;Segoe UI&amp;quot;, Roboto, &amp;quot;Noto Sans&amp;quot;, Ubuntu, Cantarell, &amp;quot;Helvetica Neue&amp;quot;, Oxygen, &amp;quot;Open Sans&amp;quot;, sans-serif; font-size: 16.002px;&quot;&gt;&amp;nbsp;&lt;/span&gt;&lt;/div&gt;&lt;div style=&quot;text-align: left;&quot;&gt;&lt;span style=&quot;background-color: rgb(255, 255, 255); color: rgb(64, 64, 64); font-family: quote-cjk-patch, Inter, system-ui, -apple-system, BlinkMacSystemFont, &amp;quot;Segoe UI&amp;quot;, Roboto, &amp;quot;Noto Sans&amp;quot;, Ubuntu, Cantarell, &amp;quot;Helvetica Neue&amp;quot;, Oxygen, &amp;quot;Open Sans&amp;quot;, sans-serif; font-size: 16.002px;&quot;&gt;hours&lt;/span&gt;&lt;span style=&quot;background-color: rgb(255, 255, 255); color: rgb(64, 64, 64); font-family: quote-cjk-patch, Inter, system-ui, -apple-system, BlinkMacSystemFont, &amp;quot;Segoe UI&amp;quot;, Roboto, &amp;quot;Noto Sans&amp;quot;, Ubuntu, Cantarell, &amp;quot;Helvetica Neue&amp;quot;, Oxygen, &amp;quot;Open Sans&amp;quot;, sans-serif; font-size: 16.002px;&quot;&gt;&amp;nbsp;&lt;/span&gt;&lt;/div&gt;&lt;div style=&quot;text-align: left;&quot;&gt;&lt;span style=&quot;background-color: rgb(255, 255, 255); color: rgb(64, 64, 64); font-family: quote-cjk-patch, Inter, system-ui, -apple-system, BlinkMacSystemFont, &amp;quot;Segoe UI&amp;quot;, Roboto, &amp;quot;Noto Sans&amp;quot;, Ubuntu, Cantarell, &amp;quot;Helvetica Neue&amp;quot;, Oxygen, &amp;quot;Open Sans&amp;quot;, sans-serif; font-size: 16.002px;&quot;&gt;(FK)&amp;nbsp;&lt;/span&gt;&lt;span style=&quot;background-color: rgb(255, 255, 255); color: rgb(64, 64, 64); font-family: quote-cjk-patch, Inter, system-ui, -apple-system, BlinkMacSystemFont, &amp;quot;Segoe UI&amp;quot;, Roboto, &amp;quot;Noto Sans&amp;quot;, Ubuntu, Cantarell, &amp;quot;Helvetica Neue&amp;quot;, Oxygen, &amp;quot;Open Sans&amp;quot;, sans-serif; font-size: 16.002px;&quot;&gt;teacher_id&amp;nbsp;&lt;/span&gt;&lt;/div&gt;" style="rounded=0;whiteSpace=wrap;html=1;" vertex="1" parent="1">
          <mxGeometry x="590" y="100" width="200" height="100" as="geometry" />
        </mxCell>
        <mxCell id="vTc1PEp6L30iyw_Uej8e-4" value="&lt;span style=&quot;font-weight: 600; color: rgb(64, 64, 64); font-family: quote-cjk-patch, Inter, system-ui, -apple-system, BlinkMacSystemFont, &amp;quot;Segoe UI&amp;quot;, Roboto, &amp;quot;Noto Sans&amp;quot;, Ubuntu, Cantarell, &amp;quot;Helvetica Neue&amp;quot;, Oxygen, &amp;quot;Open Sans&amp;quot;, sans-serif; font-size: 16.002px; text-align: start; background-color: rgb(255, 255, 255);&quot;&gt;Student&lt;/span&gt;&lt;div&gt;&lt;div style=&quot;text-align: left;&quot;&gt;&lt;font face=&quot;quote-cjk-patch, Inter, system-ui, -apple-system, BlinkMacSystemFont, Segoe UI, Roboto, Noto Sans, Ubuntu, Cantarell, Helvetica Neue, Oxygen, Open Sans, sans-serif&quot; color=&quot;#404040&quot;&gt;&lt;span style=&quot;background-color: transparent; font-size: 16.002px;&quot;&gt;(PK)&amp;nbsp;&lt;/span&gt;&lt;span style=&quot;font-size: 16.002px;&quot;&gt;student_id&amp;nbsp;&lt;/span&gt;&lt;/font&gt;&lt;/div&gt;&lt;div&gt;&lt;span style=&quot;background-color: rgb(255, 255, 255); font-size: 16.002px;&quot;&gt;&lt;font face=&quot;quote-cjk-patch, Inter, system-ui, -apple-system, BlinkMacSystemFont, Segoe UI, Roboto, Noto Sans, Ubuntu, Cantarell, Helvetica Neue, Oxygen, Open Sans, sans-serif&quot; color=&quot;#404040&quot;&gt;&lt;div style=&quot;text-align: left;&quot;&gt;last_name&lt;/div&gt;&lt;div style=&quot;text-align: left;&quot;&gt;first_name&lt;/div&gt;&lt;div style=&quot;text-align: left;&quot;&gt;middle_name&lt;/div&gt;&lt;div style=&quot;text-align: left;&quot;&gt;birth_date&lt;/div&gt;&lt;div style=&quot;text-align: left;&quot;&gt;phone&lt;/div&gt;&lt;/font&gt;&lt;/span&gt;&lt;/div&gt;&lt;/div&gt;" style="rounded=0;whiteSpace=wrap;html=1;" vertex="1" parent="1">
          <mxGeometry x="110" y="310" width="200" height="140" as="geometry" />
        </mxCell>
        <mxCell id="vTc1PEp6L30iyw_Uej8e-5" value="&lt;span style=&quot;font-weight: 600; color: rgb(64, 64, 64); font-family: quote-cjk-patch, Inter, system-ui, -apple-system, BlinkMacSystemFont, &amp;quot;Segoe UI&amp;quot;, Roboto, &amp;quot;Noto Sans&amp;quot;, Ubuntu, Cantarell, &amp;quot;Helvetica Neue&amp;quot;, Oxygen, &amp;quot;Open Sans&amp;quot;, sans-serif; font-size: 16.002px; text-align: start; background-color: rgb(255, 255, 255);&quot;&gt;Enrollment&lt;/span&gt;&lt;div&gt;&lt;span style=&quot;background-color: rgb(255, 255, 255); font-size: 16.002px;&quot;&gt;&lt;font face=&quot;quote-cjk-patch, Inter, system-ui, -apple-system, BlinkMacSystemFont, Segoe UI, Roboto, Noto Sans, Ubuntu, Cantarell, Helvetica Neue, Oxygen, Open Sans, sans-serif&quot; color=&quot;#404040&quot;&gt;&lt;div style=&quot;text-align: left;&quot;&gt;(PK) enrollment_id&amp;nbsp;&lt;/div&gt;&lt;/font&gt;&lt;/span&gt;&lt;span style=&quot;background-color: rgb(255, 255, 255); font-size: 16.002px;&quot;&gt;&lt;font face=&quot;quote-cjk-patch, Inter, system-ui, -apple-system, BlinkMacSystemFont, Segoe UI, Roboto, Noto Sans, Ubuntu, Cantarell, Helvetica Neue, Oxygen, Open Sans, sans-serif&quot; color=&quot;#404040&quot;&gt;&lt;div style=&quot;text-align: left;&quot;&gt;(FK) student_id&amp;nbsp;&lt;/div&gt;&lt;/font&gt;&lt;/span&gt;&lt;span style=&quot;background-color: rgb(255, 255, 255); font-size: 16.002px;&quot;&gt;&lt;font face=&quot;quote-cjk-patch, Inter, system-ui, -apple-system, BlinkMacSystemFont, Segoe UI, Roboto, Noto Sans, Ubuntu, Cantarell, Helvetica Neue, Oxygen, Open Sans, sans-serif&quot; color=&quot;#404040&quot;&gt;&lt;div style=&quot;text-align: left;&quot;&gt;(FK) course_id&amp;nbsp;&lt;/div&gt;&lt;div style=&quot;text-align: left;&quot;&gt;enrollment_date&lt;/div&gt;&lt;/font&gt;&lt;/span&gt;&lt;/div&gt;" style="rounded=0;whiteSpace=wrap;html=1;" vertex="1" parent="1">
          <mxGeometry x="440" y="310" width="200" height="120" as="geometry" />
        </mxCell>
        <mxCell id="vTc1PEp6L30iyw_Uej8e-14" value="" style="edgeStyle=entityRelationEdgeStyle;fontSize=12;html=1;endArrow=ERmany;rounded=0;exitX=1;exitY=0.5;exitDx=0;exitDy=0;entryX=0;entryY=0.25;entryDx=0;entryDy=0;" edge="1" parent="1" source="vTc1PEp6L30iyw_Uej8e-2" target="vTc1PEp6L30iyw_Uej8e-3">
          <mxGeometry width="100" height="100" relative="1" as="geometry">
            <mxPoint x="520" y="230" as="sourcePoint" />
            <mxPoint x="590" y="130" as="targetPoint" />
            <Array as="points">
              <mxPoint x="540" y="190" />
            </Array>
          </mxGeometry>
        </mxCell>
        <mxCell id="vTc1PEp6L30iyw_Uej8e-15" value="" style="edgeStyle=entityRelationEdgeStyle;fontSize=12;html=1;endArrow=ERmany;rounded=0;exitX=1;exitY=0.75;exitDx=0;exitDy=0;" edge="1" parent="1" source="vTc1PEp6L30iyw_Uej8e-1">
          <mxGeometry width="100" height="100" relative="1" as="geometry">
            <mxPoint x="230" y="210" as="sourcePoint" />
            <mxPoint x="330" y="120" as="targetPoint" />
          </mxGeometry>
        </mxCell>
        <mxCell id="vTc1PEp6L30iyw_Uej8e-16" value="" style="edgeStyle=entityRelationEdgeStyle;fontSize=12;html=1;endArrow=ERmany;rounded=0;entryX=-0.003;entryY=0.354;entryDx=0;entryDy=0;entryPerimeter=0;exitX=1;exitY=0.5;exitDx=0;exitDy=0;" edge="1" parent="1" source="vTc1PEp6L30iyw_Uej8e-4" target="vTc1PEp6L30iyw_Uej8e-5">
          <mxGeometry width="100" height="100" relative="1" as="geometry">
            <mxPoint x="250" y="450" as="sourcePoint" />
            <mxPoint x="340" y="350" as="targetPoint" />
          </mxGeometry>
        </mxCell>
        <mxCell id="vTc1PEp6L30iyw_Uej8e-17" value="" style="edgeStyle=entityRelationEdgeStyle;fontSize=12;html=1;endArrow=ERmany;rounded=0;entryX=1;entryY=0.5;entryDx=0;entryDy=0;exitX=0.5;exitY=1;exitDx=0;exitDy=0;" edge="1" parent="1" source="vTc1PEp6L30iyw_Uej8e-3" target="vTc1PEp6L30iyw_Uej8e-5">
          <mxGeometry width="100" height="100" relative="1" as="geometry">
            <mxPoint x="690" y="210" as="sourcePoint" />
            <mxPoint x="560" y="400" as="targetPoint" />
            <Array as="points">
              <mxPoint x="690" y="230" />
              <mxPoint x="710" y="230" />
              <mxPoint x="680" y="270" />
              <mxPoint x="690" y="240" />
              <mxPoint x="690" y="240" />
              <mxPoint x="800" y="190" />
              <mxPoint x="790" y="180" />
              <mxPoint x="810" y="210" />
              <mxPoint x="980" y="340" />
              <mxPoint x="780" y="330" />
              <mxPoint x="980" y="340" />
            </Array>
          </mxGeometry>
        </mxCell>
      </root>
    </mxGraphModel>
  </diagram>
</mxfile>
